<svg xmlns="http://www.w3.org/2000/svg" viewBox="0 0 264.83 314.4"><defs><style>.cls-1{fill:#565759;}.cls-2{fill:#191d26;}.cls-3{fill:#2c3444;}</style></defs><g id="Layer_2" data-name="Layer 2"><path class="cls-1" d="M149.14,275.65l14.93,86.81s3.76,22.47,27.19,19.66c24.88.24,128.2.24,128.2.24s23.42-2.93,20.49-31.71-31.37-25-31.37-25L227,327s-24.68,3.83-28.65-36.26c0,0-34.72-202.21-34.51-201.19S158,62.71,135.42,68.84s-17.78,35-17.78,35Z" transform="translate(-117.21 -67.96)"/><path class="cls-2" d="M284.14,314.42l.18,1.72c-15.92.79-31.85,1.54-47.73,2.74-11.93.9-21.19-4.23-24-17.43-4.68-22.08-10.08-44-15.15-66-1.55-6.75-3.12-13.52-4.53-20.3-4.1-19.54,7.41-36.25,27.16-40.84a44.2,44.2,0,0,1,5.29-.91c10.71-1.24,20.94-.45,30,5.76,9.41,6.44,13.71,15.35,15.1,26,3.13,24.13,6.55,48.21,9.87,72.3l-.25,0Z" transform="translate(-117.21 -67.96)"/><path class="cls-3" d="M215.55,168.59c-22.21.08-40.21-16.58-40.39-37.4s17.9-37.86,40.18-37.92,40.42,16.87,40.39,37.73S237.82,168.52,215.55,168.59Z" transform="translate(-117.21 -67.96)"/><path class="cls-2" d="M232.82,278.15h99.74a20,20,0,0,1,20,20V317.4a0,0,0,0,1,0,0H232.82a0,0,0,0,1,0,0V278.15A0,0,0,0,1,232.82,278.15Z" transform="translate(-125.52 -59.56) rotate(-1.62)"/><path class="cls-2" d="M344.94,280.28H358.1a9.89,9.89,0,0,1,9.89,9.89v65.12a14.52,14.52,0,0,1-14.52,14.52h-3.69a14.73,14.73,0,0,1-14.73-14.73V290.17a9.89,9.89,0,0,1,9.89-9.89Z" transform="translate(-229.02 136.47) rotate(-28.17)"/></g></svg>