<?xml version="1.0" ?><svg viewBox="0 0 32 32" xmlns="http://www.w3.org/2000/svg"><title/><g data-name="toilet paper" id="toilet_paper"><path d="M22,10.17c0,2.33,1.32,4.16,3,4.16s3-1.83,3-4.16S26.68,6,25,6,22,7.83,22,10.17Zm4,0c0,1.3-.6,2.16-1,2.16s-1-.86-1-2.16S24.6,8,25,8,26,8.86,26,10.17Zm6-.27c-.17-4.71-2.31-8.5-5.25-9.58A1,1,0,0,0,26,0H7C3.08,0,0,4.61,0,10.5S3.08,21,7,21h8v8A3.06,3.06,0,0,0,18.05,32H29A3.06,3.06,0,0,0,32,29V10S32,9.94,32,9.9Zm-2,.6c0,4.61-2.29,8.5-5,8.5s-5-3.89-5-8.5S22.29,2,25,2,30,5.89,30,10.5Zm-28,0C2,5.89,4.29,2,7,2H20.85A12.7,12.7,0,0,0,18,10.5,12.7,12.7,0,0,0,20.85,19H7C4.29,19,2,15.11,2,10.5ZM30,29A1,1,0,0,1,29,30H18.05A1,1,0,0,1,17,29V21h9a1,1,0,0,0,.73-.32A6.84,6.84,0,0,0,30,17.91ZM7,11a1,1,0,0,1-1,1H4a1,1,0,0,1,0-2H6A1,1,0,0,1,7,11Zm5,0a1,1,0,0,1-1,1H9a1,1,0,0,1,0-2h2A1,1,0,0,1,12,11Zm4,1H14a1,1,0,0,1,0-2h2a1,1,0,0,1,0,2Z"/></g></svg>